<svg xmlns="http://www.w3.org/2000/svg" viewBox="0 0 278 200">
<path d="M80.4062 0H5.13231C2.29781 0 0 2.29598 0 5.12821V53.8462C0 56.6784 2.29781 58.9744 5.13231 58.9744H80.4062C83.2406 58.9744 85.5385 56.6784 85.5385 53.8462V5.12821C85.5385 2.29598 83.2406 0 80.4062 0Z" fill="black"/>
<path d="M80.4062 70.9402H5.13231C2.29781 70.9402 0 73.2361 0 76.0684V124.786C0 127.619 2.29781 129.915 5.13231 129.915H80.4062C83.2406 129.915 85.5385 127.619 85.5385 124.786V76.0684C85.5385 73.2361 83.2406 70.9402 80.4062 70.9402Z" fill="black"/>
<path d="M80.4062 141.026H5.13231C2.29781 141.026 0 143.322 0 146.154V194.872C0 197.704 2.29781 200 5.13231 200H80.4062C83.2406 200 85.5385 197.704 85.5385 194.872V146.154C85.5385 143.322 83.2406 141.026 80.4062 141.026Z" fill="black"/>
<path d="M124.031 0H102.646V200H124.031V0Z" fill="black"/>
<path d="M143.705 1.70937L260.037 0.854675L142.849 113.675L143.705 1.70937Z" fill="black"/>
<path d="M143.705 140.171L182.197 102.564L276.289 198.291H144.56L142.849 195.726L143.705 140.171Z" fill="black"/>

</svg>
