<svg width="851" height="200" viewBox="0 0 851 200" fill="none" xmlns="http://www.w3.org/2000/svg">
<path d="M763.466 110.15C763.466 101.75 765.116 94.3 768.416 87.8C771.816 81.3 776.366 76.3 782.066 72.8C787.866 69.3 794.316 67.55 801.416 67.55C807.616 67.55 813.016 68.8 817.616 71.3C822.316 73.8 826.066 76.95 828.866 80.75V68.9H850.016V152H828.866V139.85C826.166 143.75 822.416 147 817.616 149.6C812.916 152.1 807.466 153.35 801.266 153.35C794.266 153.35 787.866 151.55 782.066 147.95C776.366 144.35 771.816 139.3 768.416 132.8C765.116 126.2 763.466 118.65 763.466 110.15ZM828.866 110.45C828.866 105.35 827.866 101 825.866 97.4C823.866 93.7 821.166 90.9 817.766 89C814.366 87 810.716 86 806.816 86C802.916 86 799.316 86.95 796.016 88.85C792.716 90.75 790.016 93.55 787.916 97.25C785.916 100.85 784.916 105.15 784.916 110.15C784.916 115.15 785.916 119.55 787.916 123.35C790.016 127.05 792.716 129.9 796.016 131.9C799.416 133.9 803.016 134.9 806.816 134.9C810.716 134.9 814.366 133.95 817.766 132.05C821.166 130.05 823.866 127.25 825.866 123.65C827.866 119.95 828.866 115.55 828.866 110.45Z" fill="#F5F5F5"/>
<path d="M732.221 81.8C734.921 77.4 738.421 73.95 742.721 71.45C747.121 68.95 752.121 67.7 757.721 67.7V89.75H752.171C745.571 89.75 740.571 91.3 737.171 94.4C733.871 97.5 732.221 102.9 732.221 110.6V152H711.221V68.9H732.221V81.8Z" fill="#F5F5F5"/>
<path d="M698.893 108.65C698.893 111.65 698.693 114.35 698.293 116.75H637.543C638.043 122.75 640.143 127.45 643.843 130.85C647.543 134.25 652.093 135.95 657.493 135.95C665.293 135.95 670.843 132.6 674.143 125.9H696.793C694.393 133.9 689.793 140.5 682.993 145.7C676.193 150.8 667.843 153.35 657.943 153.35C649.943 153.35 642.743 151.6 636.343 148.1C630.043 144.5 625.093 139.45 621.493 132.95C617.993 126.45 616.243 118.95 616.243 110.45C616.243 101.85 617.993 94.3 621.493 87.8C624.993 81.3 629.893 76.3 636.193 72.8C642.493 69.3 649.743 67.55 657.943 67.55C665.843 67.55 672.893 69.25 679.093 72.65C685.393 76.05 690.243 80.9 693.643 87.2C697.143 93.4 698.893 100.55 698.893 108.65ZM677.143 102.65C677.043 97.25 675.093 92.95 671.293 89.75C667.493 86.45 662.843 84.8 657.343 84.8C652.143 84.8 647.743 86.4 644.143 89.6C640.643 92.7 638.493 97.05 637.693 102.65H677.143Z" fill="#F5F5F5"/>
<path d="M571.523 67.7C581.423 67.7 589.423 70.85 595.523 77.15C601.623 83.35 604.673 92.05 604.673 103.25V152H583.673V106.1C583.673 99.5 582.023 94.45 578.723 90.95C575.423 87.35 570.923 85.55 565.223 85.55C559.423 85.55 554.823 87.35 551.423 90.95C548.123 94.45 546.473 99.5 546.473 106.1V152H525.473V68.9H546.473V79.25C549.273 75.65 552.823 72.85 557.123 70.85C561.523 68.75 566.323 67.7 571.523 67.7Z" fill="#F5F5F5"/>
<path d="M421.413 110.15C421.413 101.75 423.063 94.3 426.363 87.8C429.763 81.3 434.313 76.3 440.013 72.8C445.813 69.3 452.263 67.55 459.363 67.55C465.563 67.55 470.963 68.8 475.563 71.3C480.263 73.8 484.013 76.95 486.813 80.75V68.9H507.963V152H486.813V139.85C484.113 143.75 480.363 147 475.563 149.6C470.863 152.1 465.413 153.35 459.213 153.35C452.213 153.35 445.813 151.55 440.013 147.95C434.313 144.35 429.763 139.3 426.363 132.8C423.063 126.2 421.413 118.65 421.413 110.15ZM486.813 110.45C486.813 105.35 485.813 101 483.813 97.4C481.813 93.7 479.113 90.9 475.713 89C472.313 87 468.663 86 464.763 86C460.863 86 457.263 86.95 453.963 88.85C450.663 90.75 447.963 93.55 445.863 97.25C443.863 100.85 442.863 105.15 442.863 110.15C442.863 115.15 443.863 119.55 445.863 123.35C447.963 127.05 450.663 129.9 453.963 131.9C457.363 133.9 460.963 134.9 464.763 134.9C468.663 134.9 472.313 133.95 475.713 132.05C479.113 130.05 481.813 127.25 483.813 123.65C485.813 119.95 486.813 115.55 486.813 110.45Z" fill="#F5F5F5"/>
<path d="M389.45 152L351.35 105.35V152H330.35V47.3H351.35V94.25L389.45 47.3H414.8L371.6 99.2L416 152H389.45Z" fill="#F5F5F5"/>
<path d="M80.4062 0H5.13231C2.29781 0 0 2.29598 0 5.12821V53.8462C0 56.6784 2.29781 58.9744 5.13231 58.9744H80.4062C83.2406 58.9744 85.5385 56.6784 85.5385 53.8462V5.12821C85.5385 2.29598 83.2406 0 80.4062 0Z" fill="url(#paint0_linear_39_2)"/>
<path d="M80.4062 70.9402H5.13231C2.29781 70.9402 0 73.2361 0 76.0684V124.786C0 127.619 2.29781 129.915 5.13231 129.915H80.4062C83.2406 129.915 85.5385 127.619 85.5385 124.786V76.0684C85.5385 73.2361 83.2406 70.9402 80.4062 70.9402Z" fill="url(#paint1_linear_39_2)"/>
<path d="M80.4062 141.026H5.13231C2.29781 141.026 0 143.322 0 146.154V194.872C0 197.704 2.29781 200 5.13231 200H80.4062C83.2406 200 85.5385 197.704 85.5385 194.872V146.154C85.5385 143.322 83.2406 141.026 80.4062 141.026Z" fill="url(#paint2_linear_39_2)"/>
<path d="M124.031 0H102.646V200H124.031V0Z" fill="#F5F5F5"/>
<path d="M143.705 1.70937L260.037 0.854675L142.849 113.675L143.705 1.70937Z" fill="#F5F5F5"/>
<path d="M143.705 140.171L182.197 102.564L276.289 198.291H144.56L142.849 195.726L143.705 140.171Z" fill="#F5F5F5"/>
<defs>
<linearGradient id="paint0_linear_39_2" x1="10.6923" y1="3.6859" x2="52.4818" y2="68.2093" gradientUnits="userSpaceOnUse">
<stop stop-color="#14B8A6"/>
<stop offset="1" stop-color="#10B981"/>
</linearGradient>
<linearGradient id="paint1_linear_39_2" x1="10.6923" y1="74.6261" x2="52.4818" y2="139.149" gradientUnits="userSpaceOnUse">
<stop stop-color="#38BDF8"/>
<stop offset="1" stop-color="#06B6D4"/>
</linearGradient>
<linearGradient id="paint2_linear_39_2" x1="10.6923" y1="144.712" x2="52.4818" y2="209.235" gradientUnits="userSpaceOnUse">
<stop stop-color="#6366F1"/>
<stop offset="1" stop-color="#8B5CF6"/>
</linearGradient>
</defs>
</svg>
